<svg xmlns="http://www.w3.org/2000/svg" viewBox="0 0 246 66">
  <defs>
    <style>
      .cls-1 {
        fill: none;
      }

      .cls-2, .cls-3 {
        stroke: none;
      }

      .cls-3 {
        fill: #707070;
      }
    </style>
  </defs>
  <g id="Path_1" data-name="Path 1" class="cls-1">
    <path class="cls-2" d="M33,0H213a33,33,0,0,1,0,66H33A33,33,0,0,1,33,0Z"/>
    <path class="cls-3" d="M 33 3 C 28.94869995117188 3 25.02017211914062 3.792766571044922 21.32356262207031 5.356300354003906 C 17.75152587890625 6.867168426513672 14.54289245605469 9.030666351318359 11.78680419921875 11.78680038452148 C 9.030670166015625 14.54290008544922 6.867172241210938 17.75153350830078 5.356292724609375 21.32356643676758 C 3.792770385742188 25.02016830444336 3 28.94869995117188 3 33 C 3 37.05130004882812 3.792770385742188 40.97983551025391 5.356292724609375 44.67643356323242 C 6.867172241210938 48.24846649169922 9.030670166015625 51.45709991455078 11.78680419921875 54.21319961547852 C 14.54289245605469 56.96933364868164 17.75152587890625 59.13283538818359 21.32356262207031 60.64369964599609 C 25.02017211914062 62.20723342895508 28.94869995117188 63 33 63 L 213 63 C 217.0513000488281 63 220.9798278808594 62.20723342895508 224.6764373779297 60.64369964599609 C 228.2484741210938 59.13283538818359 231.4570922851562 56.96933364868164 234.2131958007812 54.21319961547852 C 236.9693298339844 51.45709991455078 239.1328277587891 48.24846649169922 240.6437072753906 44.67643356323242 C 242.2072296142578 40.97983551025391 243 37.05130004882812 243 33 C 243 28.94869995117188 242.2072296142578 25.02016830444336 240.6437072753906 21.32356643676758 C 239.1328277587891 17.75153350830078 236.9693298339844 14.54290008544922 234.2131958007812 11.78680038452148 C 231.4570922851562 9.030666351318359 228.2484741210938 6.867168426513672 224.6764373779297 5.356300354003906 C 220.9798278808594 3.792766571044922 217.0513000488281 3 213 3 L 33 3 M 33 0 L 213 0 C 231.2254028320312 0 246 14.77460098266602 246 33 C 246 51.22539901733398 231.2254028320312 66 213 66 L 33 66 C 14.77459716796875 66 0 51.22539901733398 0 33 C 0 14.77460098266602 14.77459716796875 0 33 0 Z"/>
  </g>
</svg>
