<svg xmlns="http://www.w3.org/2000/svg" viewBox="0 0 1018 347">
  <defs>
    <style>
      .cls-1 {
        fill: #fff;
      }

      .cls-2, .cls-3 {
        stroke: none;
      }

      .cls-3 {
        fill: #333;
      }
    </style>
  </defs>
  <g id="Path_1" data-name="Path 1" class="cls-1">
    <path class="cls-2" d="M 1008 346.5 L 10 346.5 C 4.761624813079834 346.5 0.5 342.2383728027344 0.5 337 L 0.5 10 C 0.5 4.761624813079834 4.761624813079834 0.5 10 0.5 L 1008 0.5 C 1013.238403320312 0.5 1017.5 4.761624813079834 1017.5 10 L 1017.5 337 C 1017.5 342.2383728027344 1013.238403320312 346.5 1008 346.5 Z"/>
    <path class="cls-3" d="M 10 1 C 5.037353515625 1 1 5.037384033203125 1 10 L 1 337 C 1 341.9626159667969 5.037353515625 346 10 346 L 1008 346 C 1012.962646484375 346 1017 341.9626159667969 1017 337 L 1017 10 C 1017 5.037384033203125 1012.962646484375 1 1008 1 L 10 1 M 10 0 L 1008 0 C 1013.522766113281 0 1018 4.47711181640625 1018 10 L 1018 337 C 1018 342.5228881835938 1013.522766113281 347 1008 347 L 10 347 C 4.47711181640625 347 0 342.5228881835938 0 337 L 0 10 C 0 4.47711181640625 4.47711181640625 0 10 0 Z"/>
  </g>
</svg>
